<svg width="99" height="10" viewBox="0 0 99 10" fill="none" xmlns="http://www.w3.org/2000/svg">
<path d="M11.1211 1.14844L8.47266 9H7.34766L5.60156 3.94922L3.85547 9H2.73047L0.117188 1.14844H1.96875L3.42188 6.10547L5.07422 1.14844H6.16406L7.79297 6.10547L9.26953 1.14844H11.1211ZM15.8789 0.972656C16.4414 0.972656 16.9688 1.07422 17.4609 1.27734C17.9531 1.47266 18.3867 1.75391 18.7617 2.12109C19.1445 2.48047 19.4414 2.91016 19.6523 3.41016C19.8711 3.91016 19.9805 4.46484 19.9805 5.07422C19.9805 5.68359 19.8711 6.23828 19.6523 6.73828C19.4414 7.23828 19.1445 7.67188 18.7617 8.03906C18.3867 8.39844 17.9531 8.67969 17.4609 8.88281C16.9688 9.07812 16.4414 9.17578 15.8789 9.17578C15.3164 9.17578 14.7852 9.07812 14.2852 8.88281C13.793 8.67969 13.3555 8.39844 12.9727 8.03906C12.5977 7.67188 12.3008 7.23828 12.082 6.73828C11.8711 6.23828 11.7656 5.68359 11.7656 5.07422C11.7656 4.46484 11.8711 3.91016 12.082 3.41016C12.3008 2.91016 12.5977 2.48047 12.9727 2.12109C13.3555 1.75391 13.793 1.47266 14.2852 1.27734C14.7852 1.07422 15.3164 0.972656 15.8789 0.972656ZM15.8789 2.50781C15.4102 2.50781 14.9883 2.62109 14.6133 2.84766C14.2461 3.07422 13.957 3.37891 13.7461 3.76172C13.5352 4.14453 13.4297 4.58203 13.4297 5.07422C13.4297 5.55859 13.5352 5.99609 13.7461 6.38672C13.957 6.76953 14.2461 7.07422 14.6133 7.30078C14.9883 7.51953 15.4102 7.62891 15.8789 7.62891C16.3477 7.62891 16.7656 7.51953 17.1328 7.30078C17.5 7.07422 17.7891 6.76953 18 6.38672C18.2109 5.99609 18.3164 5.55859 18.3164 5.07422C18.3164 4.58203 18.2109 4.14453 18 3.76172C17.7891 3.37891 17.5 3.07422 17.1328 2.84766C16.7656 2.62109 16.3477 2.50781 15.8789 2.50781ZM23.3086 1.14844V7.53516H27.2344V9H21.6797V1.14844H23.3086ZM32.3789 0.972656C32.9414 0.972656 33.4688 1.07422 33.9609 1.27734C34.4531 1.47266 34.8867 1.75391 35.2617 2.12109C35.6445 2.48047 35.9414 2.91016 36.1523 3.41016C36.3711 3.91016 36.4805 4.46484 36.4805 5.07422C36.4805 5.68359 36.3711 6.23828 36.1523 6.73828C35.9414 7.23828 35.6445 7.67188 35.2617 8.03906C34.8867 8.39844 34.4531 8.67969 33.9609 8.88281C33.4688 9.07812 32.9414 9.17578 32.3789 9.17578C31.8164 9.17578 31.2852 9.07812 30.7852 8.88281C30.293 8.67969 29.8555 8.39844 29.4727 8.03906C29.0977 7.67188 28.8008 7.23828 28.582 6.73828C28.3711 6.23828 28.2656 5.68359 28.2656 5.07422C28.2656 4.46484 28.3711 3.91016 28.582 3.41016C28.8008 2.91016 29.0977 2.48047 29.4727 2.12109C29.8555 1.75391 30.293 1.47266 30.7852 1.27734C31.2852 1.07422 31.8164 0.972656 32.3789 0.972656ZM32.3789 2.50781C31.9102 2.50781 31.4883 2.62109 31.1133 2.84766C30.7461 3.07422 30.457 3.37891 30.2461 3.76172C30.0352 4.14453 29.9297 4.58203 29.9297 5.07422C29.9297 5.55859 30.0352 5.99609 30.2461 6.38672C30.457 6.76953 30.7461 7.07422 31.1133 7.30078C31.4883 7.51953 31.9102 7.62891 32.3789 7.62891C32.8477 7.62891 33.2656 7.51953 33.6328 7.30078C34 7.07422 34.2891 6.76953 34.5 6.38672C34.7109 5.99609 34.8164 5.55859 34.8164 5.07422C34.8164 4.58203 34.7109 4.14453 34.5 3.76172C34.2891 3.37891 34 3.07422 33.6328 2.84766C33.2656 2.62109 32.8477 2.50781 32.3789 2.50781ZM45.0469 1.14844V9.05859H44.4609L39.8086 4.26562V9H38.1797V1.08984H38.7656L43.418 5.95312V1.14844H45.0469ZM53.1797 1.14844V2.61328H50.6719V8.96484H49.0547V2.61328H46.5469V1.14844H53.1797ZM57.2578 1.08984L60.9141 9H59.0039L58.4062 7.53516H55.3008L54.7031 9H52.793L56.4492 1.08984H57.2578ZM56.8594 3.75L55.875 6.15234H57.8438L56.8594 3.75ZM65.3906 1.14844C65.7578 1.14844 66.1172 1.19922 66.4688 1.30078C66.8203 1.40234 67.1367 1.55859 67.418 1.76953C67.707 1.98047 67.9336 2.24609 68.0977 2.56641C68.2695 2.87891 68.3555 3.25391 68.3555 3.69141C68.3555 4.15234 68.2383 4.55078 68.0039 4.88672C67.7773 5.21484 67.4766 5.47266 67.1016 5.66016C66.7266 5.83984 66.3203 5.94531 65.8828 5.97656L68.707 9H66.5625L63.832 5.78906V9H62.2031V1.14844H65.3906ZM63.832 2.67188V4.65234C64.0195 4.71484 64.2266 4.76562 64.4531 4.80469C64.6875 4.83594 64.9219 4.85156 65.1562 4.85156C65.625 4.85156 65.9961 4.75781 66.2695 4.57031C66.5508 4.375 66.6914 4.10156 66.6914 3.75C66.6914 3.36719 66.543 3.09375 66.2461 2.92969C65.957 2.75781 65.6016 2.67188 65.1797 2.67188H63.832ZM74.25 7.53516V9H69.9727V7.53516H71.2969V2.61328H69.9727V1.14844H74.25V2.61328H72.9258V7.53516H74.25Z" fill="#232323"/>
<path d="M79.9453 1.08984L83.6016 9H81.6914L81.0938 7.53516H77.9883L77.3906 9H75.4805L79.1367 1.08984H79.9453ZM79.5469 3.75L78.5625 6.15234H80.5312L79.5469 3.75ZM88.0781 1.14844C88.4453 1.14844 88.8047 1.21094 89.1562 1.33594C89.5078 1.46094 89.8242 1.64453 90.1055 1.88672C90.3945 2.12891 90.6211 2.42188 90.7852 2.76562C90.957 3.10156 91.043 3.48828 91.043 3.92578C91.043 4.45703 90.9062 4.92969 90.6328 5.34375C90.3672 5.75 90.0117 6.07031 89.5664 6.30469C89.1211 6.53906 88.6367 6.65625 88.1133 6.65625C87.7617 6.65625 87.4453 6.62109 87.1641 6.55078C86.8828 6.48047 86.6484 6.39844 86.4609 6.30469V9H84.832V1.14844H88.0781ZM86.4609 2.67188V4.99219C86.6328 5.0625 86.8398 5.125 87.082 5.17969C87.332 5.22656 87.5859 5.25 87.8438 5.25C88.3125 5.25 88.6836 5.12109 88.957 4.86328C89.2383 4.59766 89.3789 4.28516 89.3789 3.92578C89.3789 3.51172 89.2227 3.19922 88.9102 2.98828C88.5977 2.77734 88.2305 2.67188 87.8086 2.67188H86.4609ZM95.8711 1.14844C96.2383 1.14844 96.5977 1.21094 96.9492 1.33594C97.3008 1.46094 97.6172 1.64453 97.8984 1.88672C98.1875 2.12891 98.4141 2.42188 98.5781 2.76562C98.75 3.10156 98.8359 3.48828 98.8359 3.92578C98.8359 4.45703 98.6992 4.92969 98.4258 5.34375C98.1602 5.75 97.8047 6.07031 97.3594 6.30469C96.9141 6.53906 96.4297 6.65625 95.9062 6.65625C95.5547 6.65625 95.2383 6.62109 94.957 6.55078C94.6758 6.48047 94.4414 6.39844 94.2539 6.30469V9H92.625V1.14844H95.8711ZM94.2539 2.67188V4.99219C94.4258 5.0625 94.6328 5.125 94.875 5.17969C95.125 5.22656 95.3789 5.25 95.6367 5.25C96.1055 5.25 96.4766 5.12109 96.75 4.86328C97.0312 4.59766 97.1719 4.28516 97.1719 3.92578C97.1719 3.51172 97.0156 3.19922 96.7031 2.98828C96.3906 2.77734 96.0234 2.67188 95.6016 2.67188H94.2539Z" fill="#6C35B5"/>
</svg>
